# xmcd CD database file generated by OrangeCD 5.2
#
# Track frame offsets:
#	150
#	12759
#	28230
#	42777
#	64881
#	76823
#	105804
#	118715
#	131289
#	149013
#	164491
#	184825
#	194353
#	205103
#	221937
#	236508
#	260465
#
# Disc length: 3711 seconds
#
# Revision: 0
# Processed by: cddbd v1.5.1PL0 Copyright (c) Steve Scherf et al.
# Submitted via: OrangeCD 5.2
#
DISCID=f00e7d11
DTITLE=Gus Dewey - One More Time
DYEAR=1900
DGENRE=
TTITLE0=One More Time
TTITLE1=Let Me Down Easy
TTITLE2=How Could I Be So Wrong
TTITLE3=Sixguns and Silver
TTITLE4=Howlin' At The Moon
TTITLE5=Guilty
TTITLE6=Cut Off Your Legs
TTITLE7=Rockin' And Rollin'
TTITLE8=Failthful
TTITLE9=Take Me Home
TTITLE10=KUDU
TTITLE11=Can't You See I've Been Cryin'
TTITLE12=You Don't Have To Answer
TTITLE13=The Water Is Wide
TTITLE14=I'll Never See You Again
TTITLE15=Jazzman
TTITLE16=Let Me Down Easy
EXTD=
EXTT0=
EXTT1=
EXTT2=
EXTT3=
EXTT4=
EXTT5=
EXTT6=
EXTT7=
EXTT8=
EXTT9=
EXTT10=
EXTT11=
EXTT12=
EXTT13=
EXTT14=
EXTT15=
EXTT16=
PLAYORDER=
